# Minimal-area piecewise linear graph; fixed polygonal boundary
v -1 -1 0
v -0.83333333333333337 -1 0
v -0.66666666666666674 -1 0
v -0.5 -1 0
v -0.33333333333333337 -1 0
v -0.16666666666666663 -1 0
v 0 -1 0
v 0.16666666666666674 -1 0
v 0.33333333333333326 -1 0
v 0.5 -1 0
v 0.66666666666666674 -1 0
v 0.83333333333333304 -1 0
v 1 -1 0
v -1 -0.83333333333333337 0
v -0.83333333333333337 -0.83333333333333337 -1.6619629495053694e-13
v -0.66666666666666674 -0.83333333333333337 -2.6156686510688921e-13
v -0.5 -0.83333333333333337 -6.8845824407138395e-14
v -0.33333333333333337 -0.83333333333333337 1.8560561729657811e-14
v -0.16666666666666663 -0.83333333333333337 6.2984949351449927e-14
v 0 -0.83333333333333337 3.5446360066704944e-14
v 0.16666666666666674 -0.83333333333333337 -7.7612880446041642e-14
v 0.33333333333333326 -0.83333333333333337 -5.4334659371051008e-14
v 0.5 -0.83333333333333337 7.1881701125276497e-14
v 0.66666666666666674 -0.83333333333333337 2.3606005415876774e-13
v 0.83333333333333304 -0.83333333333333337 2.2996725237721975e-13
v 1 -0.83333333333333337 0
v -1 -0.66666666666666674 0
v -0.83333333333333337 -0.66666666666666674 -2.6156687326748402e-13
v -0.66666666666666674 -0.66666666666666674 -1.7637598961828917e-13
v -0.5 -0.66666666666666674 -4.9107624604788238e-14
v -0.33333333333333337 -0.66666666666666674 1.1162691506649454e-13
v -0.16666666666666663 -0.66666666666666674 1.1694035563346151e-13
v 0 -0.66666666666666674 -2.4534717146834293e-14
v 0.16666666666666674 -0.66666666666666674 -5.3970086069119475e-14
v 0.33333333333333326 -0.66666666666666674 -9.9370162945472331e-14
v 0.5 -0.66666666666666674 -3.8014936492518006e-14
v 0.66666666666666674 -0.66666666666666674 2.1516713396672527e-13
v 0.83333333333333304 -0.66666666666666674 2.360600322973577e-13
v 1 -0.66666666666666674 0
v -1 -0.5 0
v -0.83333333333333337 -0.5 -6.8845800823767978e-14
v -0.66666666666666674 -0.5 -4.9107660167013482e-14
v -0.5 -0.5 9.9722216622158839e-14
v -0.33333333333333337 -0.5 1.4550765393181216e-13
v -0.16666666666666663 -0.5 -1.2923567203047722e-15
v 0 -0.5 9.0066266217577107e-15
v 0.16666666666666674 -0.5 -5.3060002456889388e-14
v 0.33333333333333326 -0.5 -7.0771438720449819e-14
v 0.5 -0.5 -4.3004466878646697e-14
v 0.66666666666666674 -0.5 -3.8015031350074593e-14
v 0.83333333333333304 -0.5 7.1881772399462667e-14
v 1 -0.5 0
v -1 -0.33333333333333337 0
v -0.83333333333333337 -0.33333333333333337 1.8560495546484942e-14
v -0.66666666666666674 -0.33333333333333337 1.1162699472587908e-13
v -0.5 -0.33333333333333337 1.4550757382322056e-13
v -0.33333333333333337 -0.33333333333333337 -1.9992872052605637e-14
v -0.16666666666666663 -0.33333333333333337 -1.1636764373964261e-13
v 0 -0.33333333333333337 -3.5958824310217515e-14
v 0.16666666666666674 -0.33333333333333337 6.1193862743623974e-14
v 0.33333333333333326 -0.33333333333333337 4.4779194263919297e-14
v 0.5 -0.33333333333333337 -7.0771653740893805e-14
v 0.66666666666666674 -0.33333333333333337 -9.9369924416525763e-14
v 0.83333333333333304 -0.33333333333333337 -5.4334836658102314e-14
v 1 -0.33333333333333337 0
v -1 -0.16666666666666663 0
v -0.83333333333333337 -0.16666666666666663 6.2985037994975576e-14
v -0.66666666666666674 -0.16666666666666663 1.1694016906279771e-13
v -0.5 -0.16666666666666663 -1.2922024925489925e-15
v -0.33333333333333337 -0.16666666666666663 -1.1636777266206759e-13
v -0.16666666666666663 -0.16666666666666663 -7.8134722934991102e-14
v 0 -0.16666666666666663 -3.0029397337988105e-15
v 0.16666666666666674 -0.16666666666666663 1.2469050205535819e-13
v 0.33333333333333326 -0.16666666666666663 6.1193520447847556e-14
v 0.5 -0.16666666666666663 -5.3059540372564791e-14
v 0.66666666666666674 -0.16666666666666663 -5.3970583491065786e-14
v 0.83333333333333304 -0.16666666666666663 -7.7612613916521937e-14
v 1 -0.16666666666666663 0
v -1 0 0
v -0.83333333333333337 0 3.5446200598200178e-14
v -0.66666666666666674 0 -2.453449913167661e-14
v -0.5 0 9.0063079842195568e-15
v -0.33333333333333337 0 -3.595860599558846e-14
v -0.16666666666666663 0 -3.0030995017749433e-15
v 0 0 1.0359527199501311e-13
v 0.16666666666666674 0 -3.0033640847307322e-15
v 0.33333333333333326 0 -3.5958170564215831e-14
v 0.5 0 9.0057777701581814e-15
v 0.66666666666666674 0 -2.4534063400832609e-14
v 0.83333333333333304 0 3.5445935715773021e-14
v 1 0 0
v -1 0.16666666666666674 0
v -0.83333333333333337 0.16666666666666674 -7.7612725918814486e-14
v -0.66666666666666674 0.16666666666666674 -5.3970433755380563e-14
v -0.5 0.16666666666666674 -5.3059669893932507e-14
v -0.33333333333333337 0.16666666666666674 6.119345681018134e-14
v -0.16666666666666663 0.16666666666666674 1.2469074582505373e-13
v 0 0.16666666666666674 -3.003523553235495e-15
v 0.16666666666666674 0.16666666666666674 -7.8133993272997002e-14
v 0.33333333333333326 0.16666666666666674 -1.1636872258525465e-13
v 0.5 0.16666666666666674 -1.2913597801125576e-15
v 0.66666666666666674 0.16666666666666674 1.1693943206375506e-13
v 0.83333333333333304 0.16666666666666674 6.2985412184452957e-14
v 1 0.16666666666666674 0
v -1 0.33333333333333326 0
v -0.83333333333333337 0.33333333333333326 -5.4334870049160115e-14
v -0.66666666666666674 0.33333333333333326 -9.9369864222780311e-14
v -0.5 0.33333333333333326 -7.0771912334422177e-14
v -0.33333333333333337 0.33333333333333326 4.4779573394674287e-14
v -0.16666666666666663 0.33333333333333326 6.1193114664140605e-14
v 0 0.33333333333333326 -3.5957951650644039e-14
v 0.16666666666666674 0.33333333333333326 -1.163688509087369e-13
v 0.33333333333333326 0.33333333333333326 -1.9991738104261444e-14
v 0.5 0.33333333333333326 1.4550639690073471e-13
v 0.66666666666666674 0.33333333333333326 1.1162780988694944e-13
v 0.83333333333333304 0.33333333333333326 1.8560002317137818e-14
v 1 0.33333333333333326 0
v -1 0.5 0
v -0.83333333333333337 0.5 7.188185565250364e-14
v -0.66666666666666674 0.5 -3.8015293162920206e-14
v -0.5 0.5 -4.300410938469823e-14
v -0.33333333333333337 0.5 -7.0772127354866162e-14
v -0.16666666666666663 0.5 -5.3059207659872227e-14
v 0 0.5 9.0054588331486575e-15
v 0.16666666666666674 0.5 -1.2912052528854075e-15
v 0.33333333333333326 0.5 1.4550631634293607e-13
v 0.5 0.5 9.972328655849761e-14
v 0.66666666666666674 0.5 -4.9108571907600801e-14
v 0.83333333333333304 0.5 -6.8845360525985574e-14
v 1 0.5 0
v -1 0.66666666666666674 0
v -0.83333333333333337 0.66666666666666674 2.3605990180270802e-13
v -0.66666666666666674 0.66666666666666674 2.1516735288029706e-13
v -0.5 0.66666666666666674 -3.8015388319948164e-14
v -0.33333333333333337 0.66666666666666674 -9.9369625394362379e-14
v -0.16666666666666663 0.66666666666666674 -5.3970930877855503e-14
v 0 0.66666666666666674 -2.4533845385674926e-14
v 0.16666666666666674 0.66666666666666674 1.1693924564282696e-13
v 0.33333333333333326 0.66666666666666674 1.1162788939659829e-13
v 0.5 0.66666666666666674 -4.9108607245222515e-14
v 0.66666666666666674 0.66666666666666674 -1.7637533355138437e-13
v 0.83333333333333304 0.66666666666666674 -2.6156726931837143e-13
v 1 0.66666666666666674 0
v -1 0.83333333333333304 0
v -0.83333333333333337 0.83333333333333304 2.2996731781171419e-13
v -0.66666666666666674 0.83333333333333304 2.3605987990386406e-13
v -0.5 0.83333333333333304 7.1881927301029024e-14
v -0.33333333333333337 0.83333333333333304 -5.4335046887004366e-14
v -0.16666666666666663 0.83333333333333304 -7.7612459239559111e-14
v 0 0.83333333333333304 3.5445776397003944e-14
v 0.16666666666666674 0.83333333333333304 6.2985501277185667e-14
v 0.33333333333333326 0.83333333333333304 1.8559936583172004e-14
v 0.5 0.83333333333333304 -6.884533686774731e-14
v 0.66666666666666674 0.83333333333333304 -2.615672773292306e-13
v 0.83333333333333304 0.83333333333333304 -1.661960986470536e-13
v 1 0.83333333333333304 0
v -1 1 0
v -0.83333333333333337 1 0
v -0.66666666666666674 1 0
v -0.5 1 0
v -0.33333333333333337 1 0
v -0.16666666666666663 1 0
v 0 1 0
v 0.16666666666666674 1 0
v 0.33333333333333326 1 0
v 0.5 1 0
v 0.66666666666666674 1 0
v 0.83333333333333304 1 0
v 1 1 0
f 1 2 15
f 1 15 14
f 2 3 16
f 2 16 15
f 3 4 17
f 3 17 16
f 4 5 18
f 4 18 17
f 5 6 19
f 5 19 18
f 6 7 20
f 6 20 19
f 7 8 21
f 7 21 20
f 8 9 22
f 8 22 21
f 9 10 23
f 9 23 22
f 10 11 24
f 10 24 23
f 11 12 25
f 11 25 24
f 12 13 26
f 12 26 25
f 14 15 28
f 14 28 27
f 15 16 29
f 15 29 28
f 16 17 30
f 16 30 29
f 17 18 31
f 17 31 30
f 18 19 32
f 18 32 31
f 19 20 33
f 19 33 32
f 20 21 34
f 20 34 33
f 21 22 35
f 21 35 34
f 22 23 36
f 22 36 35
f 23 24 37
f 23 37 36
f 24 25 38
f 24 38 37
f 25 26 39
f 25 39 38
f 27 28 41
f 27 41 40
f 28 29 42
f 28 42 41
f 29 30 43
f 29 43 42
f 30 31 44
f 30 44 43
f 31 32 45
f 31 45 44
f 32 33 46
f 32 46 45
f 33 34 47
f 33 47 46
f 34 35 48
f 34 48 47
f 35 36 49
f 35 49 48
f 36 37 50
f 36 50 49
f 37 38 51
f 37 51 50
f 38 39 52
f 38 52 51
f 40 41 54
f 40 54 53
f 41 42 55
f 41 55 54
f 42 43 56
f 42 56 55
f 43 44 57
f 43 57 56
f 44 45 58
f 44 58 57
f 45 46 59
f 45 59 58
f 46 47 60
f 46 60 59
f 47 48 61
f 47 61 60
f 48 49 62
f 48 62 61
f 49 50 63
f 49 63 62
f 50 51 64
f 50 64 63
f 51 52 65
f 51 65 64
f 53 54 67
f 53 67 66
f 54 55 68
f 54 68 67
f 55 56 69
f 55 69 68
f 56 57 70
f 56 70 69
f 57 58 71
f 57 71 70
f 58 59 72
f 58 72 71
f 59 60 73
f 59 73 72
f 60 61 74
f 60 74 73
f 61 62 75
f 61 75 74
f 62 63 76
f 62 76 75
f 63 64 77
f 63 77 76
f 64 65 78
f 64 78 77
f 66 67 80
f 66 80 79
f 67 68 81
f 67 81 80
f 68 69 82
f 68 82 81
f 69 70 83
f 69 83 82
f 70 71 84
f 70 84 83
f 71 72 85
f 71 85 84
f 72 73 86
f 72 86 85
f 73 74 87
f 73 87 86
f 74 75 88
f 74 88 87
f 75 76 89
f 75 89 88
f 76 77 90
f 76 90 89
f 77 78 91
f 77 91 90
f 79 80 93
f 79 93 92
f 80 81 94
f 80 94 93
f 81 82 95
f 81 95 94
f 82 83 96
f 82 96 95
f 83 84 97
f 83 97 96
f 84 85 98
f 84 98 97
f 85 86 99
f 85 99 98
f 86 87 100
f 86 100 99
f 87 88 101
f 87 101 100
f 88 89 102
f 88 102 101
f 89 90 103
f 89 103 102
f 90 91 104
f 90 104 103
f 92 93 106
f 92 106 105
f 93 94 107
f 93 107 106
f 94 95 108
f 94 108 107
f 95 96 109
f 95 109 108
f 96 97 110
f 96 110 109
f 97 98 111
f 97 111 110
f 98 99 112
f 98 112 111
f 99 100 113
f 99 113 112
f 100 101 114
f 100 114 113
f 101 102 115
f 101 115 114
f 102 103 116
f 102 116 115
f 103 104 117
f 103 117 116
f 105 106 119
f 105 119 118
f 106 107 120
f 106 120 119
f 107 108 121
f 107 121 120
f 108 109 122
f 108 122 121
f 109 110 123
f 109 123 122
f 110 111 124
f 110 124 123
f 111 112 125
f 111 125 124
f 112 113 126
f 112 126 125
f 113 114 127
f 113 127 126
f 114 115 128
f 114 128 127
f 115 116 129
f 115 129 128
f 116 117 130
f 116 130 129
f 118 119 132
f 118 132 131
f 119 120 133
f 119 133 132
f 120 121 134
f 120 134 133
f 121 122 135
f 121 135 134
f 122 123 136
f 122 136 135
f 123 124 137
f 123 137 136
f 124 125 138
f 124 138 137
f 125 126 139
f 125 139 138
f 126 127 140
f 126 140 139
f 127 128 141
f 127 141 140
f 128 129 142
f 128 142 141
f 129 130 143
f 129 143 142
f 131 132 145
f 131 145 144
f 132 133 146
f 132 146 145
f 133 134 147
f 133 147 146
f 134 135 148
f 134 148 147
f 135 136 149
f 135 149 148
f 136 137 150
f 136 150 149
f 137 138 151
f 137 151 150
f 138 139 152
f 138 152 151
f 139 140 153
f 139 153 152
f 140 141 154
f 140 154 153
f 141 142 155
f 141 155 154
f 142 143 156
f 142 156 155
f 144 145 158
f 144 158 157
f 145 146 159
f 145 159 158
f 146 147 160
f 146 160 159
f 147 148 161
f 147 161 160
f 148 149 162
f 148 162 161
f 149 150 163
f 149 163 162
f 150 151 164
f 150 164 163
f 151 152 165
f 151 165 164
f 152 153 166
f 152 166 165
f 153 154 167
f 153 167 166
f 154 155 168
f 154 168 167
f 155 156 169
f 155 169 168
